<svg width="85" height="92" viewBox="0 0 85 92" fill="none" xmlns="http://www.w3.org/2000/svg">
<path d="M36.7123 5.94214L37.077 6.24347L37.8433 7.00921L38.5507 7.95166L39.3169 9.18862L39.7885 10.1311L40.319 11.3091L41.0264 13.4296L41.3801 15.02L41.6158 16.6104L41.7337 18.024V21.8527L41.6158 23.4431L41.3211 26.0348L40.8495 28.8033L40.2011 31.6895L39.7885 33.3388L39.4938 34.3401L40.1422 33.0443L40.8495 31.984L41.3211 31.395L41.8516 30.806L42.3821 30.3347L43.2663 29.8046L43.9147 29.569H44.0326L43.9737 29.8046L43.1484 30.9827L42.4411 32.2196L41.9106 33.4566L41.3801 35.047L41.0264 36.4606L40.9674 36.8141L41.4979 36.1661L42.3232 35.2826L42.9126 34.7525L43.1484 34.5758H43.3253L43.0305 36.225L42.7948 37.9332L42.6769 39.1702V41.2907L42.8537 42.94L43.1484 44.2947L43.5611 45.5317L44.1505 46.6508L44.74 47.4166L45.3294 48.0056L46.1547 48.5357L47.0978 48.8891L47.7462 49.007L48.6304 48.948L49.5146 48.7124L50.5756 48.2412L51.7545 47.5933L52.6977 47.0632L54.0534 46.3563L55.7629 45.6495L56.5881 45.4139L57.6491 45.2961L58.7691 45.355L59.8891 45.6495L60.3017 45.8262L60.4196 44.8248L60.7733 43.0578L61.2448 41.5263L61.8343 40.1126L62.3058 39.1702L62.8364 38.2277L63.6027 37.1086L64.2511 36.2839L64.6637 35.8716L65.0763 35.4004L65.6068 34.8703L66.2552 34.3401L67.0215 33.81L67.8468 33.3977L67.3752 32.9265L66.9036 32.1607L66.5499 31.2183L66.4321 30.5704L66.491 29.9224L66.7268 29.1567L67.1394 28.5088L67.4931 28.1553H67.611L67.552 28.6266V29.4512L67.7878 30.158L68.1415 30.6882L68.672 31.1005L69.3204 31.3361H70.4993L73.3287 30.9827H75.7455L77.2192 31.2183L78.3391 31.5717L79.1644 31.984L79.8717 32.4552L80.3433 32.8676V32.9854H80.4612L81.0506 33.7511L81.5812 34.6347L83.1727 34.8114L83.88 35.047L84.4695 35.4004L84.8232 35.8127L84.9411 36.1072L85 36.4606V36.9908L84.7642 36.9319L84.1158 36.5195L83.4085 36.225L82.7601 36.1072L83.6443 36.4606L84.0569 36.7552V36.873H82.6422L81.2864 37.1086L80.2254 37.462L79.1644 37.9332L78.2212 38.4633L77.337 39.0524L76.6886 39.5825L76.0992 40.1126L75.3918 41.0551L74.9203 41.9386L74.5666 42.9989L74.3898 43.8824L74.3308 44.3536V46.533L74.5666 48.1823L74.9203 49.4193L75.4508 50.8329L76.0992 52.3644L77.0423 54.3082L77.9265 56.3109L78.5749 58.2547L78.9875 60.0218L79.2823 61.9067L79.3412 62.4957V64.4395L79.1644 65.6176L78.8696 66.8545L78.2802 68.3271L77.7497 69.3284L77.0423 70.3887L76.6297 70.9188L76.1581 71.5078L75.5097 72.2147L74.6255 73.0982L73.9771 73.6283L73.4466 74.0996L72.3266 74.9242L70.9709 75.8078L69.5562 76.6324L67.7289 77.5748L66.2552 78.2228L64.6637 78.8707L62.6595 79.5775L60.1838 80.2844L57.9438 80.8145L56.1165 81.1679L53.7587 81.5213L51.3419 81.7569H50.9293L50.9882 81.5802L52.344 80.9323L53.1692 80.4611L54.525 79.5775L55.7629 78.6351L56.4113 78.0461L56.8828 77.6337L57.7081 76.8091L58.1207 76.3379L58.5923 75.7488L59.2407 74.8653L59.8891 73.7462L60.5375 72.5092L61.1859 70.8599L61.6574 69.2106L61.9522 67.6792L62.129 66.3244L62.2469 64.7929V62.6135L61.9522 64.2628L61.4806 66.3833L61.009 68.1504L60.8322 68.6805L60.7143 68.6216L60.0659 66.7956L59.4175 65.3819L58.6512 64.0861L58.0617 63.3203L57.4133 62.6135L57.0597 62.2012L56.2344 61.5533L55.4092 61.0231L54.0534 60.3163L53.8766 60.1396L54.1713 60.0807L55.4092 60.0218H57.2365L56.1165 59.7862L54.9966 59.6684H52.5208L50.4577 59.904L48.2178 60.3163L45.6242 60.9642L43.8558 61.4944L41.6748 62.2012L40.0832 62.7313L38.6685 63.0258L37.6075 63.1436H36.1339L34.896 62.9669L33.7171 62.6724L32.774 62.319L31.7719 61.8478L30.8287 61.2587L29.8856 60.5519L29.1193 59.8451L28.412 59.1382L27.8814 58.4314V58.3136L29.9445 58.4314L31.1235 58.4903H33.8939L34.5423 58.4314H35.1907V58.3136L34.3065 58.2547L32.8918 57.9602L31.654 57.5479L30.4751 57.0177L29.8267 56.6054L29.0604 56.0164L28.4709 55.4863L27.8225 54.8383L27.0562 53.7781L26.4667 52.6589L26.1131 51.7165V51.5398L26.4078 51.5987L28.353 52.4233L29.9445 53.0713L30.3572 53.248L29.7677 52.7767L29.1193 52.2466L28.1172 51.2453L27.5278 50.4795L26.9383 49.596L26.4078 48.5946L25.8773 47.4166L25.3468 45.8262L24.9931 44.2947L24.7573 42.7043L24.6984 41.9975V40.5838L24.9931 40.8784L25.5236 41.5852L26.2899 42.4687L26.9973 43.1756L27.8225 43.8235L28.412 44.2358L27.8225 43.3523L27.1151 42.1153L26.4667 40.8195L25.8773 39.288L25.5236 38.051L25.2878 36.6963L25.2349 35.7704L25.2878 34.5826L25.5236 33.3388L25.8945 32.3389L25.9952 32.7498L26.2899 34.2223L26.7025 35.4004L27.292 36.5195L27.8814 37.4031L28.5298 38.2277L28.6477 38.2866L28.2351 37.4031L27.7046 35.9305L27.233 33.9867L27.0562 32.7498L26.9383 31.2772V30.4526L26.9973 29.2156L27.292 27.3307L27.6457 25.8581L28.0583 24.8568L28.4709 24.2088L28.9425 23.6279V23.8554L28.8835 24.4445L28.7067 25.6225L28.6649 26.7955L28.7067 27.8019L28.9425 29.3334L29.2372 30.4526L29.5909 31.5128L29.6498 31.5717L29.8856 30.2758L30.1803 29.3923L30.6519 28.4499L31.1235 27.6252L31.8898 26.5061L32.5382 25.6225L32.9508 24.9746L33.5402 24.091L34.1297 23.0308L34.4834 22.2061L34.7781 21.2048L34.9549 20.2035L35.0728 20.0856L35.1907 20.4391L35.2497 21.3815V23.6198L35.1318 25.1513L35.0728 26.1526L35.6034 24.6801L36.0749 22.913L36.3697 21.3815L36.6054 19.6144L36.7233 16.846L36.9002 16.9049L37.3717 18.0829L37.7254 19.3199L38.0201 21.0281L38.197 19.7322L38.3149 18.2597V15.0789L38.138 13.0173L37.9022 11.368L37.6075 9.65984L37.077 7.36263L36.7823 6.36128L36.7123 5.94214Z" fill="url(#paint0_linear_197_1865)"/>
<path d="M19.6878 30.9829H19.8646L19.7467 31.3363L19.2752 32.1021L18.1552 34.3404L17.5068 35.8129L16.7994 37.6389L16.0921 39.8183L15.5616 41.9388L15.2079 43.647L14.9132 45.6497L14.6774 48.0058L14.6184 49.3017V50.8921L14.7363 53.1893L14.9721 55.3098L15.3258 57.4303L15.7974 59.5508L16.21 61.0234L16.9173 63.1439L17.6836 65.0288L18.4499 66.678L19.0394 67.915L19.7467 69.0931L20.3362 70.0944L21.2793 71.5081L21.9867 72.5094L22.694 73.393L23.3424 74.2176L24.1087 75.1012L24.8161 75.8669L26.9381 77.9874L27.5865 78.5175L28.2349 79.1066L30.0033 80.4613L31.0054 81.1682L32.1843 81.9339L32.9506 82.4051L34.3064 83.1709L35.8979 83.9955L37.4894 84.7023L39.1399 85.3503L41.203 86.0571L42.9714 86.5283L44.504 86.8817L46.9208 87.2941L48.3355 87.4708L49.6912 87.5886L51.5775 87.6475H52.7564L55.2322 87.5297L56.8826 87.353L59.4173 86.9406L61.7162 86.4105L63.5435 85.8804L65.7245 85.1146H65.8424L65.7245 85.3503L64.4867 86.116L63.4846 86.705L61.1857 87.8831L59.4173 88.6488L57.2953 89.4146L55.7037 89.8858L53.5817 90.4159L51.2828 90.8282L48.6302 91.1227L46.5671 91.2405H45.5061L43.443 91.1227L41.203 90.8871L39.022 90.5337L36.7231 90.0036L34.9548 89.4735L33.4222 88.9433L31.7717 88.2954L29.7675 87.353L28.4707 86.6461L27.1739 85.8804L25.8182 84.9968L24.1677 83.8188L23.5193 83.2887L22.753 82.6407L21.9277 81.9339L20.9846 81.0504L19.9825 80.049L19.5699 79.5778L18.7447 78.6942L18.2731 78.1052L17.6247 77.2806L16.9173 76.3381L16.2689 75.3957L15.6205 74.3943L15.149 73.6286L14.3237 72.156L13.7932 71.1547L13.0269 69.4465L12.2606 67.5027L11.7301 65.9123L11.2585 64.263L10.787 62.0836L10.4333 59.7864L10.2564 58.0782L10.1385 55.781V54.4263L10.3154 51.9523L10.6101 49.714L10.9638 47.7702L11.5533 45.4141L12.2606 43.2347L12.8501 41.7032L13.5574 40.1129L14.6184 37.9924L15.3847 36.6965L16.21 35.4006L16.9763 34.3404L17.5657 33.5746L18.332 32.6322L18.8036 32.0432L19.5109 31.2185L19.6878 30.9829Z" fill="#ED3C28"/>
<path d="M26.113 12.0164L26.3488 12.0753L25.8183 12.4876L24.8162 13.1944L23.8731 13.9012L23.2836 14.3725L22.6352 14.9026L22.0458 15.3738L21.2205 16.0807L20.8079 16.493L20.3363 16.9053L19.3343 17.8477L18.8037 18.4368L18.568 18.6724H18.4501L18.3322 18.908L17.6838 19.5559L17.1533 20.2039L16.6227 20.7929L16.0922 21.4408L15.6207 22.0298L14.9723 22.8545L14.4417 23.5613L12.8502 25.9763L12.0839 27.2722L11.4945 28.2736L10.7282 29.805L10.1387 30.9242L9.07767 33.3981L8.19348 35.872L7.66297 37.5802L7.1914 39.3473L6.66089 41.7623L6.24827 44.2951L5.95354 47.3581L5.89459 48.3594V51.7758L6.01248 53.7785L6.30721 56.488L6.71983 59.0209L7.30929 61.6126L8.07559 64.2043L8.95978 66.7371L10.0208 69.211L10.7282 70.6836L11.4355 72.0384L12.3197 73.5699L13.027 74.7479L14.3239 76.6328L15.0312 77.6342L15.5617 78.2821L16.0922 78.9889L16.8585 79.8725L17.5659 80.6971L18.0964 81.2861L18.509 81.6985L18.9216 82.1697L20.1595 83.4066L20.6311 83.819L21.3384 84.4669L21.81 84.8792L23.1068 85.9395L23.991 86.6463L25.111 87.4709L26.2309 88.2367L26.3488 88.4134L25.9951 88.3545L24.6394 87.7655L23.4605 87.2353L21.9868 86.5285L20.8079 85.8806L19.3343 84.997L18.0964 84.2313L17.2122 83.5834L16.5638 83.1121L15.8564 82.582L15.0312 81.9341L14.206 81.2272L13.4986 80.5793L13.027 80.167L10.7282 77.8698L10.3155 77.3985L9.78502 76.8095L9.13661 75.9849L8.48821 75.2191L7.72191 74.1589L6.77878 72.8041L6.07143 71.685L5.59986 70.9192L4.71567 69.3289L3.89043 67.6796L3.18308 66.0892L2.53467 64.4399L1.76838 62.2016L1.17892 60.0222L0.707351 57.9017L0.353675 55.7223L0.117892 53.4251L0 50.9512V49.4786L0.0589459 47.7704L0.235784 45.6499L0.530513 43.5883L0.825243 41.939L1.4147 39.4651L1.88627 37.8747L2.47573 36.1076L3.12413 34.4584L3.89043 32.7502L4.362 31.7488L5.06935 30.453L5.71775 29.2749L6.4251 28.1557L7.13245 27.0955L7.8398 26.0941L8.54716 25.1517L9.31345 24.2093L9.78502 23.6202L10.3745 22.9723L10.4334 22.8545H10.5513L10.6692 22.6189L11.5534 21.7353L11.966 21.2641L12.4376 20.7929L12.9092 20.3806L13.4397 19.8504L13.9112 19.4381L14.7365 18.7313L15.3259 18.2601L16.387 17.4354L17.448 16.6697L18.3911 16.0218L19.6879 15.1971L20.9258 14.4903L22.2226 13.7834L23.5194 13.1355L25.4057 12.3109L26.113 12.0164Z" fill="#ED3C28"/>
<path d="M78.8697 68.5632H78.9286V69.2112L78.6929 70.6837L78.3981 71.8029L77.9855 72.922L77.5139 73.9823L76.8066 75.1604L76.0992 76.1617L75.5098 76.8096L75.0972 77.2809L74.154 78.2233L73.5056 78.7534L72.6214 79.4603L71.6783 80.1082L70.4404 80.8739L68.731 81.7575L67.1395 82.4643L65.43 83.1122L64.0153 83.5835L61.8343 84.1725L59.2997 84.7026L57.0008 85.056L55.4092 85.2327L53.8177 85.3505L52.5798 85.4095H49.7504L47.5105 85.2916L47.4515 85.1738L48.1589 85.056L50.4578 84.8204L52.9335 84.467L55.4682 83.9958L58.0618 83.4068L60.1839 82.8177L62.1291 82.2287L64.3101 81.4041L65.8427 80.7561L67.1395 80.1671L68.2594 79.5781L69.4384 78.9301L70.2047 78.4589L71.0888 77.8699L72.0909 77.1631L72.9162 76.5151L73.6825 75.8672L74.154 75.4549L75.0382 74.5124L75.6277 73.9234L76.394 72.922L77.0424 72.0385L77.7497 70.8604L78.3981 69.6235L78.8108 68.6221L78.8697 68.5632Z" fill="#ED4029"/>
<path d="M27.0562 0L27.4098 0.0589029L28.353 0.530126L29.0603 0.942446L29.8266 1.53147L30.534 2.17941L30.9466 2.59173L31.7129 3.59307L32.3613 4.59442L32.8918 5.59577L33.4223 6.95054L33.8939 8.54092L34.2476 10.3669L34.4244 12.1929L34.4833 13.1353V14.6668L34.3065 16.6106L34.0707 18.2599L33.6581 20.2037L33.0686 22.1475L32.5381 23.3844L32.4202 23.4433L32.3613 15.9038L32.2434 13.5477L31.9487 10.8381L31.595 8.71762L31.1234 6.89164L30.5929 5.36016L30.1213 4.29991L29.5319 3.18075L28.7066 1.94379L28.1761 1.29586L27.4688 0.471223L27.0562 0.0589029V0Z" fill="#ED4129"/>
<path d="M46.5084 61.6123L46.6263 61.6712L46.8031 62.378V63.7328L46.5673 64.6164L46.2726 65.3232L45.86 66.03L45.3884 66.619L44.74 67.267L44.2684 67.6204L43.3842 68.1505L42.3232 68.6217L41.0853 68.9163L39.9064 69.0341H39.258L38.0202 68.8574L36.9591 68.5628L36.016 68.0916L35.5444 67.7971V67.6204L38.3738 67.267L39.8475 66.9725L41.439 66.4423L42.5 65.9711L43.5611 65.3232L44.3274 64.7342L44.7989 64.3218L45.3295 63.6739L45.7421 63.026L46.2136 62.1424L46.3905 61.6712L46.5084 61.6123Z" fill="#ED4028"/>
<path d="M48.6303 27.9202L48.7482 27.9791L48.2766 28.8037L47.7461 29.6873L47.2156 30.8064L46.803 31.9845L46.5083 33.1036L46.3314 34.2817L46.2725 35.2241V36.52L46.3904 38.8761V41.1144L46.2725 42.1747L46.0367 43.0582L45.742 43.8239L45.4472 44.2952H45.3294L45.2704 42.5281L45.1525 41.5267L44.622 38.6994L44.3862 36.9912L44.3273 36.1077V35.4008L44.4452 34.0461L44.6809 32.9269L45.0936 31.8078L45.742 30.5708L46.5083 29.5694L47.2746 28.8037L48.0998 28.2147L48.6303 27.9202Z" fill="#F1622D"/>
<path d="M78.8697 68.5632H78.9286V69.2112L78.8107 70.0358H78.7518L78.6928 69.3879L78.516 69.4468L78.6339 69.0934L78.8697 68.5632Z" fill="#F06C30"/>
<path d="M31.7719 9.36548L32.0076 9.48328L32.1255 9.8367H31.9487V10.4257H31.8897L31.7719 9.65999V9.36548Z" fill="#F27130"/>
<path d="M26.113 12.0164L26.3488 12.0753L25.8772 12.4287L25.5825 12.3109L25.8183 12.1342L26.113 12.0164Z" fill="#F17231"/>
<path d="M20.9847 84.938H21.1616L21.4563 85.3503L21.3973 85.527L21.2795 85.3503H21.0437V85.2325L20.9258 85.1736H21.0437L20.9847 84.938Z" fill="#ED3B28"/>
<path d="M19.6881 84.408L19.9828 84.4669L20.3365 84.6436V84.8203L20.0418 84.7025L19.7471 84.5258L19.6881 84.408Z" fill="#ED3B28"/>
<path d="M19.6879 30.9829H19.8648L19.7469 31.3363L19.57 31.513L19.4521 31.2774L19.6879 30.9829Z" fill="#F17130"/>
<path d="M57.4244 2.7749L59.7405 8.3624L65.9995 10.43L59.7405 12.4975L57.4244 18.085L55.1084 12.4975L48.8494 10.43L55.1084 8.3624L57.4244 2.7749Z" fill="#379BC7"/>
<path d="M67.9782 10.4297L69.2966 13.6088L72.8594 14.7851L69.2966 15.9615L67.9782 19.1406L66.6599 15.9615L63.097 14.7851L66.6599 13.6088L67.9782 10.4297Z" fill="#379BC7"/>
<defs>
<linearGradient id="paint0_linear_197_1865" x1="54.8492" y1="5.94214" x2="54.8492" y2="81.7569" gradientUnits="userSpaceOnUse">
<stop stop-color="#28EDD6"/>
<stop offset="0.46623" stop-color="#2090B1"/>
<stop offset="1" stop-color="#172687"/>
</linearGradient>
</defs>
</svg>
